# xmcd CD database file
#
# Track frame offsets:
#	150
#	18389
#	33115
#	47141
#	61201
#	79941
#	91120
#	102690
#	115297
#	125786
#	140741
#	154456
#
# Disc length: 2298 seconds
#
# Revision: 0
# Processed by: cddbd v1.4PL0 Copyright (c) Steve Scherf et al.
# Submitted via: CDex 1.50
#
DISCID=a708f80c
DTITLE=Ninety Nine Tales - (self titled)
DYEAR=2001
DGENRE=Country
TTITLE0=Diamond
TTITLE1=Promise Me
TTITLE2=Place Without a Name
TTITLE3=In the Sea Called the Night
TTITLE4=Fever
TTITLE5=Middle of the Night
TTITLE6=Stardust
TTITLE7=Slowly
TTITLE8=White Cloud
TTITLE9=This Land
TTITLE10=June Song
TTITLE11=Coming Home Again
EXTD=YEAR: 2001
EXTT0=
EXTT1=
EXTT2=
EXTT3=
EXTT4=
EXTT5=
EXTT6=
EXTT7=
EXTT8=
EXTT9=
EXTT10=
EXTT11=
PLAYORDER=
